<svg xmlns="http://www.w3.org/2000/svg" width="230" height="40" viewBox="0 0 280 50" fill="none">
<g xmlns="http://www.w3.org/2000/svg" id="svgGroup" stroke-linecap="round" fill-rule="evenodd" font-size="9pt" stroke="#6d28d9" stroke-width="0.25mm" fill="#6d28d9" style="stroke:#6d28d9;stroke-width:0.25mm;fill:#6d28d9" transform="translate(65,10)"><path d="M 155.376 30.576 L 155.376 28.032 Q 155.376 25.44 155.088 19.992 Q 154.819 14.894 154.633 13.39 A 9.994 9.994 0 0 0 154.608 13.2 A 39.082 39.082 0 0 1 154.526 12.597 Q 154.416 11.728 154.416 11.328 A 1.012 1.012 0 0 1 154.588 10.772 Q 154.686 10.62 154.84 10.475 A 2.319 2.319 0 0 1 154.992 10.344 A 2.105 2.105 0 0 1 156.123 9.9 A 2.724 2.724 0 0 1 156.384 9.888 A 1.246 1.246 0 0 1 157.4 10.384 A 2.054 2.054 0 0 1 157.632 10.752 A 6.942 6.942 0 0 1 158.049 12.051 Q 158.544 14.187 158.624 18.294 A 85.45 85.45 0 0 1 158.64 19.968 Q 161.616 17.52 163.44 15.576 A 31.329 31.329 0 0 0 165.218 13.496 Q 166.052 12.435 166.895 11.203 A 51.402 51.402 0 0 0 167.136 10.848 A 2.692 2.692 0 0 1 167.536 10.338 A 1.64 1.64 0 0 1 168.72 9.84 A 4.152 4.152 0 0 1 169.34 9.882 Q 170.544 10.065 170.544 11.04 A 3.235 3.235 0 0 1 170.226 12.291 Q 169.403 14.18 166.445 17.458 A 76.853 76.853 0 0 1 164.352 19.68 A 26.36 26.36 0 0 1 167.146 22.671 A 35.086 35.086 0 0 1 169.32 25.704 A 60.605 60.605 0 0 1 170.111 26.967 Q 171.604 29.422 171.647 30.173 A 0.754 0.754 0 0 1 171.648 30.216 Q 171.648 30.887 171.36 31.312 A 1.375 1.375 0 0 1 171.144 31.56 Q 170.64 32.016 169.968 32.016 Q 169.296 32.016 168.408 30.84 A 25.795 25.795 0 0 1 167.758 29.935 Q 167.429 29.457 167.063 28.891 A 64.148 64.148 0 0 1 166.296 27.672 Q 165.474 26.334 164.781 25.364 A 20.64 20.64 0 0 0 164.136 24.504 Q 163.424 23.609 162.309 22.59 A 28.574 28.574 0 0 0 161.568 21.936 A 30.488 30.488 0 0 1 159.095 23.936 A 27.863 27.863 0 0 1 158.736 24.192 A 3091.625 3091.625 0 0 1 158.77 25.519 Q 158.88 29.892 158.88 30.48 A 1.664 1.664 0 0 1 158.731 31.21 Q 158.319 32.064 156.768 32.064 A 2.006 2.006 0 0 1 156.217 31.995 Q 155.374 31.754 155.374 30.67 A 2.93 2.93 0 0 1 155.376 30.576 Z M 70.032 0.912 L 89.472 0.624 A 3.509 3.509 0 0 1 90.031 0.847 Q 90.864 1.274 90.864 2.016 A 4.274 4.274 0 0 1 90.78 2.907 Q 90.457 4.416 88.896 4.416 Q 85.296 4.416 81.264 4.608 Q 81.08 7.769 81.037 9.733 A 50.173 50.173 0 0 0 81.024 10.824 L 81.024 13.488 L 81.216 30.336 A 4.386 4.386 0 0 1 81.182 30.908 Q 81.101 31.517 80.832 31.817 A 0.846 0.846 0 0 1 80.448 32.064 A 3.353 3.353 0 0 1 79.932 32.188 Q 79.521 32.256 79.008 32.256 Q 77.616 32.256 77.472 30.672 A 60.313 60.313 0 0 1 77.353 28.588 Q 77.184 24.608 77.184 16.872 Q 77.184 7.421 77.436 5.004 A 8.785 8.785 0 0 1 77.472 4.704 Q 76.7 4.741 75.366 4.749 A 135.127 135.127 0 0 1 74.496 4.752 Q 72.576 4.752 69.741 4.706 A 526.526 526.526 0 0 1 69.6 4.704 A 1.972 1.972 0 0 1 69.092 4.642 A 1.39 1.39 0 0 1 68.4 4.224 A 1.672 1.672 0 0 1 67.971 3.155 A 2.164 2.164 0 0 1 67.968 3.048 A 1.741 1.741 0 0 1 68.167 2.254 Q 68.314 1.965 68.568 1.68 Q 69.168 1.008 70.032 0.912 Z M 179.712 21.264 L 179.808 27.552 Q 179.808 28.8 179.76 28.896 L 188.064 28.752 A 2.774 2.774 0 0 1 188.589 28.853 Q 189.456 29.119 189.456 29.952 A 3.149 3.149 0 0 1 189.37 30.725 Q 189.054 31.968 187.584 31.968 L 178.176 32.064 A 1.957 1.957 0 0 1 177.669 32.002 A 1.302 1.302 0 0 1 176.904 31.464 A 2.676 2.676 0 0 1 176.529 30.666 A 2.442 2.442 0 0 1 176.448 30.192 Q 176.4 29.52 176.4 28.704 L 176.4 20.736 A 1.322 1.322 0 0 1 176.051 20.472 Q 175.791 20.191 175.777 19.776 A 1.409 1.409 0 0 1 175.776 19.728 A 1.604 1.604 0 0 1 176.164 18.682 A 2.177 2.177 0 0 1 176.304 18.528 Q 176.16 14.784 176.16 11.712 A 2.073 2.073 0 0 1 176.299 10.922 Q 176.666 10.026 178.002 9.906 A 4.694 4.694 0 0 1 178.32 9.888 L 179.664 9.888 L 188.064 10.032 L 188.112 10.032 A 2.877 2.877 0 0 1 188.711 10.167 Q 189.573 10.471 189.642 11.32 A 1.876 1.876 0 0 1 189.648 11.472 A 2.479 2.479 0 0 1 189.609 11.932 Q 189.497 12.52 189.072 12.768 Q 188.041 13.323 184.617 13.42 A 55.055 55.055 0 0 1 183.072 13.44 Q 181.296 13.44 179.52 13.296 Q 179.52 17.616 179.568 18.144 Q 181.097 18.183 185.029 18.19 A 1034.494 1034.494 0 0 0 186.912 18.192 A 2.923 2.923 0 0 1 187.492 18.322 Q 188.363 18.623 188.398 19.463 A 1.714 1.714 0 0 1 188.4 19.536 A 1.444 1.444 0 0 1 188.204 20.252 A 2.135 2.135 0 0 1 187.92 20.64 Q 187.44 21.168 186.888 21.24 Q 186.437 21.299 185.153 21.31 A 73.843 73.843 0 0 1 184.536 21.312 Q 183.158 21.312 181.062 21.284 A 553.092 553.092 0 0 1 179.712 21.264 Z M 9.905 1.171 A 0.779 0.779 0 0 0 9.792 1.56 A 2.604 2.604 0 0 0 9.796 1.683 Q 9.847 2.651 10.488 9.504 A 359.363 359.363 0 0 1 10.713 12.001 Q 11.045 15.84 11.143 18.12 A 38.896 38.896 0 0 1 11.184 19.752 A 49.757 49.757 0 0 1 11.17 20.963 Q 11.12 23.009 10.896 24.576 A 14.971 14.971 0 0 1 10.755 25.43 Q 10.676 25.827 10.582 26.165 A 6.237 6.237 0 0 1 10.368 26.808 Q 10.032 27.648 9.384 28.248 Q 8.736 28.848 7.824 28.848 A 3.41 3.41 0 0 1 4.716 27.021 Q 3.915 25.659 3.648 23.28 A 6.613 6.613 0 0 0 3.599 22.948 Q 3.315 21.312 2.352 21.312 A 2.367 2.367 0 0 0 1.487 21.474 A 2.802 2.802 0 0 0 0.744 21.912 Q 0.442 22.156 0.262 22.419 A 1.421 1.421 0 0 0 0 23.232 Q 0 25.288 0.489 26.892 A 7.52 7.52 0 0 0 2.208 29.928 A 7.187 7.187 0 0 0 5.194 31.842 A 8.603 8.603 0 0 0 7.92 32.256 A 7.782 7.782 0 0 0 9.264 32.145 A 5.187 5.187 0 0 0 13.008 29.568 A 6.048 6.048 0 0 0 13.407 28.809 Q 13.842 27.824 14.112 26.424 A 31.914 31.914 0 0 0 14.393 24.732 A 25.145 25.145 0 0 0 14.592 22.704 A 43.496 43.496 0 0 0 14.632 21.8 Q 14.688 20.172 14.688 17.544 A 30.154 30.154 0 0 0 14.684 17.064 Q 14.635 14.037 14.023 5.677 A 1023.09 1023.09 0 0 0 13.68 1.152 A 1.128 1.128 0 0 0 13.512 0.658 A 1.344 1.344 0 0 0 13.224 0.336 Q 12.948 0.109 12.519 0.035 A 2.649 2.649 0 0 0 12.072 0 Q 11.328 0 10.56 0.528 A 3.731 3.731 0 0 0 10.402 0.642 Q 10.054 0.91 9.905 1.171 Z M 147.84 14.016 L 143.952 13.536 A 11.194 11.194 0 0 0 140.875 13.922 Q 137.424 14.91 136.508 18.432 A 11.456 11.456 0 0 0 136.176 21.312 A 10.639 10.639 0 0 0 136.493 23.983 A 7.534 7.534 0 0 0 138.528 27.552 Q 139.374 28.433 140.272 28.667 A 2.591 2.591 0 0 0 140.928 28.752 Q 142.085 28.752 144.851 27.803 A 48.992 48.992 0 0 0 145.296 27.648 Q 148.354 26.566 148.645 26.544 A 0.146 0.146 0 0 1 148.656 26.544 Q 149.758 26.544 149.923 27.411 A 1.781 1.781 0 0 1 149.952 27.744 A 1.762 1.762 0 0 1 149.488 28.93 Q 149.236 29.219 148.848 29.472 A 63.994 63.994 0 0 1 146.136 30.555 Q 142.287 31.983 140.254 32.015 A 5.865 5.865 0 0 1 140.16 32.016 A 5.336 5.336 0 0 1 137.914 31.506 A 7.071 7.071 0 0 1 136.944 30.96 Q 135.36 29.904 134.448 28.224 Q 132.576 24.912 132.576 21.12 A 13.615 13.615 0 0 1 132.99 17.668 A 9.706 9.706 0 0 1 135.648 13.056 A 10.441 10.441 0 0 1 141.921 10.168 A 14.163 14.163 0 0 1 143.52 10.08 Q 146.304 10.08 149.04 10.992 L 149.04 11.04 A 2.772 2.772 0 0 1 149.428 11.322 Q 149.62 11.491 149.734 11.672 A 1.048 1.048 0 0 1 149.904 12.24 A 1.316 1.316 0 0 1 149.649 13.01 Q 149.514 13.201 149.309 13.38 A 2.823 2.823 0 0 1 149.208 13.464 A 3.064 3.064 0 0 1 148.722 13.784 Q 148.276 14.016 147.84 14.016 Z M 95.904 30.24 L 95.904 30.288 A 1.44 1.44 0 0 1 95.518 31.269 A 2.183 2.183 0 0 1 95.232 31.536 Q 94.56 32.064 93.744 32.064 A 1.683 1.683 0 0 1 93.339 32.02 Q 92.81 31.888 92.711 31.367 A 1.404 1.404 0 0 1 92.688 31.104 Q 92.496 28.848 92.496 13.2 A 2.257 2.257 0 0 1 93.33 11.439 Q 93.738 11.084 94.344 10.8 Q 96.192 9.936 99.288 9.936 A 10.54 10.54 0 0 1 102.34 10.363 A 8.988 8.988 0 0 1 104.712 11.472 A 6.749 6.749 0 0 1 105.876 12.426 Q 106.549 13.128 106.833 13.935 A 3.688 3.688 0 0 1 107.04 15.168 A 2.945 2.945 0 0 1 106.884 16.084 Q 106.662 16.761 106.128 17.52 A 10.241 10.241 0 0 1 105.262 18.598 Q 104.773 19.124 104.253 19.509 A 6.306 6.306 0 0 1 104.184 19.56 A 16.652 16.652 0 0 1 103.452 20.056 Q 102.552 20.634 101.232 21.36 A 61.047 61.047 0 0 1 100.564 21.722 Q 99.231 22.434 98.88 22.512 A 35.662 35.662 0 0 1 102.88 25.446 A 31.058 31.058 0 0 1 104.256 26.688 Q 106.608 28.944 106.608 30.24 A 2.205 2.205 0 0 1 106.518 30.895 Q 106.285 31.644 105.456 31.92 Q 105.212 31.99 104.868 32.009 A 4.982 4.982 0 0 1 104.592 32.016 Q 104.081 32.016 103.3 31.049 A 8.066 8.066 0 0 1 103.248 30.984 Q 102.633 30.206 101.199 28.91 A 57.262 57.262 0 0 0 100.176 28.008 A 57.493 57.493 0 0 0 97.097 25.528 A 49.344 49.344 0 0 0 95.712 24.528 Q 95.807 28.334 95.902 30.206 A 70.703 70.703 0 0 0 95.904 30.24 Z M 197.664 30.24 L 197.664 30.288 A 1.44 1.44 0 0 1 197.278 31.269 A 2.183 2.183 0 0 1 196.992 31.536 Q 196.32 32.064 195.504 32.064 A 1.683 1.683 0 0 1 195.099 32.02 Q 194.57 31.888 194.471 31.367 A 1.404 1.404 0 0 1 194.448 31.104 Q 194.256 28.848 194.256 13.2 A 2.257 2.257 0 0 1 195.09 11.439 Q 195.498 11.084 196.104 10.8 Q 197.952 9.936 201.048 9.936 A 10.54 10.54 0 0 1 204.1 10.363 A 8.988 8.988 0 0 1 206.472 11.472 A 6.749 6.749 0 0 1 207.636 12.426 Q 208.309 13.128 208.593 13.935 A 3.688 3.688 0 0 1 208.8 15.168 A 2.945 2.945 0 0 1 208.644 16.084 Q 208.422 16.761 207.888 17.52 A 10.241 10.241 0 0 1 207.022 18.598 Q 206.533 19.124 206.013 19.509 A 6.306 6.306 0 0 1 205.944 19.56 A 16.652 16.652 0 0 1 205.212 20.056 Q 204.312 20.634 202.992 21.36 A 61.047 61.047 0 0 1 202.324 21.722 Q 200.991 22.434 200.64 22.512 A 35.662 35.662 0 0 1 204.64 25.446 A 31.058 31.058 0 0 1 206.016 26.688 Q 208.368 28.944 208.368 30.24 A 2.205 2.205 0 0 1 208.278 30.895 Q 208.045 31.644 207.216 31.92 Q 206.972 31.99 206.628 32.009 A 4.982 4.982 0 0 1 206.352 32.016 Q 205.841 32.016 205.06 31.049 A 8.066 8.066 0 0 1 205.008 30.984 Q 204.393 30.206 202.959 28.91 A 57.262 57.262 0 0 0 201.936 28.008 A 57.493 57.493 0 0 0 198.857 25.528 A 49.344 49.344 0 0 0 197.472 24.528 Q 197.567 28.334 197.662 30.206 A 70.703 70.703 0 0 0 197.664 30.24 Z M 124.944 30.72 L 123.264 24.144 Q 119.04 24.144 116.496 23.472 A 137.374 137.374 0 0 0 115.89 25.768 Q 115.075 28.974 114.889 30.534 A 10.065 10.065 0 0 0 114.864 30.768 A 1.439 1.439 0 0 1 114.617 31.398 Q 114.242 31.913 113.354 31.963 A 3.494 3.494 0 0 1 113.16 31.968 A 2.676 2.676 0 0 1 112.599 31.915 Q 111.779 31.738 111.666 30.978 A 1.754 1.754 0 0 1 111.648 30.72 A 10.661 10.661 0 0 1 111.781 29.201 Q 112.257 25.988 114.432 19.2 Q 115.68 15.216 117.216 12.576 A 11.569 11.569 0 0 1 117.883 11.547 Q 118.623 10.541 119.339 10.163 A 1.817 1.817 0 0 1 120.192 9.936 A 1.289 1.289 0 0 1 121.015 10.24 Q 121.292 10.462 121.536 10.848 Q 122.007 11.593 123.102 13.892 A 153.59 153.59 0 0 1 123.624 15 Q 125.136 18.24 126.144 21.864 Q 127.152 25.488 128.352 30.72 A 1.45 1.45 0 0 1 128.289 31.159 A 1.148 1.148 0 0 1 127.92 31.704 A 1.546 1.546 0 0 1 127.054 32.055 A 2.018 2.018 0 0 1 126.864 32.064 A 2.64 2.64 0 0 1 126.134 31.971 Q 125.227 31.71 124.944 30.72 Z M 39.6 17.712 Q 39.6 13.392 40.656 11.616 Q 41.459 10.266 43.537 9.942 A 9.376 9.376 0 0 1 44.976 9.84 A 11.202 11.202 0 0 1 47.303 10.069 Q 49.039 10.437 50.328 11.4 A 5.356 5.356 0 0 1 51.718 12.891 Q 52.394 13.998 52.415 15.412 A 6.134 6.134 0 0 1 52.416 15.504 A 7.067 7.067 0 0 1 52.207 17.27 A 5.084 5.084 0 0 1 50.928 19.584 A 4.168 4.168 0 0 1 53.085 20.86 A 5.917 5.917 0 0 1 53.712 21.672 A 6.894 6.894 0 0 1 54.62 23.698 A 6.165 6.165 0 0 1 54.816 25.248 A 7.18 7.18 0 0 1 54.113 28.44 A 7.194 7.194 0 0 1 52.656 30.432 Q 51.208 31.97 41.059 32.059 A 145.838 145.838 0 0 1 39.792 32.064 A 6.618 6.618 0 0 0 39.791 31.979 Q 39.786 31.621 39.749 30.2 A 969.776 969.776 0 0 0 39.744 30 Q 39.602 24.615 39.6 17.928 A 639.82 639.82 0 0 1 39.6 17.712 Z M 33.192 12.864 A 8.916 8.916 0 0 0 33.183 12.853 Q 31.001 10.128 27.456 10.128 A 12.945 12.945 0 0 0 24.749 10.397 A 8.892 8.892 0 0 0 20.4 12.624 Q 18.58 14.345 18.015 17.252 A 15.004 15.004 0 0 0 17.76 20.112 A 17.314 17.314 0 0 0 17.963 22.807 A 12.938 12.938 0 0 0 20.304 28.56 A 10.418 10.418 0 0 0 21.006 29.417 A 7.644 7.644 0 0 0 26.88 32.016 A 6.695 6.695 0 0 0 31.195 30.51 A 9.218 9.218 0 0 0 32.976 28.56 A 12.97 12.97 0 0 0 34.813 24.651 A 15.79 15.79 0 0 0 35.376 20.352 Q 35.376 15.6 33.192 12.864 Z M 31.92 20.88 Q 31.92 17.04 30.816 15.24 A 3.56 3.56 0 0 0 28.678 13.663 Q 28.051 13.482 27.288 13.448 A 8.114 8.114 0 0 0 26.928 13.44 A 7.31 7.31 0 0 0 25.161 13.641 A 4.962 4.962 0 0 0 22.608 15.144 A 5.56 5.56 0 0 0 21.433 17.283 Q 21.185 18.098 21.107 19.073 A 11.604 11.604 0 0 0 21.072 19.992 Q 21.072 23.136 22.704 25.824 A 6.311 6.311 0 0 0 23.941 27.327 A 4.82 4.82 0 0 0 27.216 28.512 A 3.399 3.399 0 0 0 29.705 27.446 A 4.807 4.807 0 0 0 30 27.12 Q 31.92 24.72 31.92 20.88 Z M 47.856 21.888 A 30.204 30.204 0 0 0 45.555 21.981 Q 44.301 22.077 42.912 22.272 Q 42.875 23.044 42.867 24.224 A 104.363 104.363 0 0 0 42.864 24.984 A 30.626 30.626 0 0 0 42.898 26.367 Q 42.926 26.986 42.977 27.679 A 62.664 62.664 0 0 0 43.104 29.136 L 44.496 29.136 A 10.273 10.273 0 0 0 45.139 29.113 Q 45.842 29.069 46.836 28.937 A 47.642 47.642 0 0 0 47.472 28.848 A 10.439 10.439 0 0 0 49.066 28.466 Q 51.84 27.543 51.84 25.248 Q 51.84 22.122 48.392 21.904 A 8.505 8.505 0 0 0 47.856 21.888 Z M 95.712 20.256 A 4.816 4.816 0 0 0 96.697 20.139 Q 97.693 19.929 99.075 19.338 A 28.703 28.703 0 0 0 100.464 18.696 A 16.968 16.968 0 0 0 101.626 18.071 Q 103.661 16.863 103.776 15.792 A 1.88 1.88 0 0 0 102.999 14.238 A 3.263 3.263 0 0 0 102.336 13.848 Q 100.896 13.2 99.312 13.2 Q 97.488 13.2 95.76 13.632 Q 95.723 15.396 95.715 18.342 A 656.307 656.307 0 0 0 95.712 20.256 Z M 197.472 20.256 A 4.816 4.816 0 0 0 198.457 20.139 Q 199.453 19.929 200.835 19.338 A 28.703 28.703 0 0 0 202.224 18.696 A 16.968 16.968 0 0 0 203.386 18.071 Q 205.421 16.863 205.536 15.792 A 1.88 1.88 0 0 0 204.759 14.238 A 3.263 3.263 0 0 0 204.096 13.848 Q 202.656 13.2 201.072 13.2 Q 199.248 13.2 197.52 13.632 Q 197.483 15.396 197.475 18.342 A 656.307 656.307 0 0 0 197.472 20.256 Z M 42.96 15.264 L 42.96 19.344 A 13.268 13.268 0 0 0 45.137 19.174 Q 46.451 18.956 47.544 18.456 A 3.748 3.748 0 0 0 48.59 17.767 Q 49.39 17.001 49.477 15.804 A 4.119 4.119 0 0 0 49.488 15.504 A 2.041 2.041 0 0 0 48.792 13.96 A 3.26 3.26 0 0 0 48.336 13.608 A 4.621 4.621 0 0 0 46.468 12.925 A 6.038 6.038 0 0 0 45.6 12.864 Q 44.016 12.864 43.488 13.44 Q 43.109 13.853 43.002 14.612 A 4.679 4.679 0 0 0 42.96 15.264 Z M 120.048 14.352 Q 118.464 17.04 117.456 20.352 Q 119.568 20.928 122.448 20.928 Q 121.536 17.616 120.048 14.352 Z" vector-effect="non-scaling-stroke"/>
</g><rect width="50" height="50" rx="10" fill="#6d28d9"/>
<path d="M26.0039 9.5625H31.8633V29.25C31.8633 31.0599 31.4596 32.6615 30.6523 34.0547C29.8581 35.4349 28.7318 36.5026 27.2734 37.2578C25.8151 38.013 24.168 38.3906 22.332 38.3906C19.3242 38.3906 16.9805 37.6289 15.3008 36.1055C13.6211 34.569 12.7812 32.401 12.7812 29.6016H18.6797C18.6797 30.9948 18.9727 32.0234 19.5586 32.6875C20.1445 33.3516 21.069 33.6836 22.332 33.6836C23.4518 33.6836 24.3438 33.2995 25.0078 32.5312C25.6719 31.763 26.0039 30.6693 26.0039 29.25V9.5625Z" fill="white"/>
</svg>